<?xml version="1.0" encoding="utf-8" standalone="no"?>
<!DOCTYPE svg PUBLIC "-//W3C//DTD SVG 1.1//EN"
  "http://www.w3.org/Graphics/SVG/1.1/DTD/svg11.dtd">
<svg xmlns:xlink="http://www.w3.org/1999/xlink" width="460.8pt" height="345.6pt" viewBox="0 0 460.8 345.6" xmlns="http://www.w3.org/2000/svg" version="1.1">
 <metadata>
  <rdf:RDF xmlns:dc="http://purl.org/dc/elements/1.1/" xmlns:cc="http://creativecommons.org/ns#" xmlns:rdf="http://www.w3.org/1999/02/22-rdf-syntax-ns#">
   <cc:Work>
    <dc:type rdf:resource="http://purl.org/dc/dcmitype/StillImage"/>
    <dc:date>2024-03-19T15:57:36.415801</dc:date>
    <dc:format>image/svg+xml</dc:format>
    <dc:creator>
     <cc:Agent>
      <dc:title>Matplotlib v3.6.1, https://matplotlib.org/</dc:title>
     </cc:Agent>
    </dc:creator>
   </cc:Work>
  </rdf:RDF>
 </metadata>
 <defs>
  <style type="text/css">*{stroke-linejoin: round; stroke-linecap: butt}</style>
 </defs>
 <g id="figure_1">
  <g id="patch_1">
   <path d="M 0 345.6 
L 460.8 345.6 
L 460.8 0 
L 0 0 
z
" style="fill: #ffffff"/>
  </g>
  <g id="axes_1">
   <g id="patch_2">
    <path d="M 57.6 307.584 
L 414.72 307.584 
L 414.72 41.472 
L 57.6 41.472 
z
" style="fill: #ffffff"/>
   </g>
   <g id="matplotlib.axis_1">
    <g id="xtick_1">
     <g id="line2d_1">
      <defs>
       <path id="m57c2ce1452" d="M 0 0 
L 0 3.5 
" style="stroke: #000000; stroke-width: 0.8"/>
      </defs>
      <g>
       <use xlink:href="#m57c2ce1452" x="60.305455" y="307.584" style="stroke: #000000; stroke-width: 0.8"/>
      </g>
     </g>
     <g id="text_1">
      <!-- 0 -->
      <g transform="translate(57.124205 322.182437) scale(0.1 -0.1)">
       <defs>
        <path id="DejaVuSans-30" d="M 2034 4250 
Q 1547 4250 1301 3770 
Q 1056 3291 1056 2328 
Q 1056 1369 1301 889 
Q 1547 409 2034 409 
Q 2525 409 2770 889 
Q 3016 1369 3016 2328 
Q 3016 3291 2770 3770 
Q 2525 4250 2034 4250 
z
M 2034 4750 
Q 2819 4750 3233 4129 
Q 3647 3509 3647 2328 
Q 3647 1150 3233 529 
Q 2819 -91 2034 -91 
Q 1250 -91 836 529 
Q 422 1150 422 2328 
Q 422 3509 836 4129 
Q 1250 4750 2034 4750 
z
" transform="scale(0.015625)"/>
       </defs>
       <use xlink:href="#DejaVuSans-30"/>
      </g>
     </g>
    </g>
    <g id="xtick_2">
     <g id="line2d_2">
      <g>
       <use xlink:href="#m57c2ce1452" x="127.941818" y="307.584" style="stroke: #000000; stroke-width: 0.8"/>
      </g>
     </g>
     <g id="text_2">
      <!-- 100 -->
      <g transform="translate(118.398068 322.182437) scale(0.1 -0.1)">
       <defs>
        <path id="DejaVuSans-31" d="M 794 531 
L 1825 531 
L 1825 4091 
L 703 3866 
L 703 4441 
L 1819 4666 
L 2450 4666 
L 2450 531 
L 3481 531 
L 3481 0 
L 794 0 
L 794 531 
z
" transform="scale(0.015625)"/>
       </defs>
       <use xlink:href="#DejaVuSans-31"/>
       <use xlink:href="#DejaVuSans-30" x="63.623047"/>
       <use xlink:href="#DejaVuSans-30" x="127.246094"/>
      </g>
     </g>
    </g>
    <g id="xtick_3">
     <g id="line2d_3">
      <g>
       <use xlink:href="#m57c2ce1452" x="195.578182" y="307.584" style="stroke: #000000; stroke-width: 0.8"/>
      </g>
     </g>
     <g id="text_3">
      <!-- 200 -->
      <g transform="translate(186.034432 322.182437) scale(0.1 -0.1)">
       <defs>
        <path id="DejaVuSans-32" d="M 1228 531 
L 3431 531 
L 3431 0 
L 469 0 
L 469 531 
Q 828 903 1448 1529 
Q 2069 2156 2228 2338 
Q 2531 2678 2651 2914 
Q 2772 3150 2772 3378 
Q 2772 3750 2511 3984 
Q 2250 4219 1831 4219 
Q 1534 4219 1204 4116 
Q 875 4013 500 3803 
L 500 4441 
Q 881 4594 1212 4672 
Q 1544 4750 1819 4750 
Q 2544 4750 2975 4387 
Q 3406 4025 3406 3419 
Q 3406 3131 3298 2873 
Q 3191 2616 2906 2266 
Q 2828 2175 2409 1742 
Q 1991 1309 1228 531 
z
" transform="scale(0.015625)"/>
       </defs>
       <use xlink:href="#DejaVuSans-32"/>
       <use xlink:href="#DejaVuSans-30" x="63.623047"/>
       <use xlink:href="#DejaVuSans-30" x="127.246094"/>
      </g>
     </g>
    </g>
    <g id="xtick_4">
     <g id="line2d_4">
      <g>
       <use xlink:href="#m57c2ce1452" x="263.214545" y="307.584" style="stroke: #000000; stroke-width: 0.8"/>
      </g>
     </g>
     <g id="text_4">
      <!-- 300 -->
      <g transform="translate(253.670795 322.182437) scale(0.1 -0.1)">
       <defs>
        <path id="DejaVuSans-33" d="M 2597 2516 
Q 3050 2419 3304 2112 
Q 3559 1806 3559 1356 
Q 3559 666 3084 287 
Q 2609 -91 1734 -91 
Q 1441 -91 1130 -33 
Q 819 25 488 141 
L 488 750 
Q 750 597 1062 519 
Q 1375 441 1716 441 
Q 2309 441 2620 675 
Q 2931 909 2931 1356 
Q 2931 1769 2642 2001 
Q 2353 2234 1838 2234 
L 1294 2234 
L 1294 2753 
L 1863 2753 
Q 2328 2753 2575 2939 
Q 2822 3125 2822 3475 
Q 2822 3834 2567 4026 
Q 2313 4219 1838 4219 
Q 1578 4219 1281 4162 
Q 984 4106 628 3988 
L 628 4550 
Q 988 4650 1302 4700 
Q 1616 4750 1894 4750 
Q 2613 4750 3031 4423 
Q 3450 4097 3450 3541 
Q 3450 3153 3228 2886 
Q 3006 2619 2597 2516 
z
" transform="scale(0.015625)"/>
       </defs>
       <use xlink:href="#DejaVuSans-33"/>
       <use xlink:href="#DejaVuSans-30" x="63.623047"/>
       <use xlink:href="#DejaVuSans-30" x="127.246094"/>
      </g>
     </g>
    </g>
    <g id="xtick_5">
     <g id="line2d_5">
      <g>
       <use xlink:href="#m57c2ce1452" x="330.850909" y="307.584" style="stroke: #000000; stroke-width: 0.8"/>
      </g>
     </g>
     <g id="text_5">
      <!-- 400 -->
      <g transform="translate(321.307159 322.182437) scale(0.1 -0.1)">
       <defs>
        <path id="DejaVuSans-34" d="M 2419 4116 
L 825 1625 
L 2419 1625 
L 2419 4116 
z
M 2253 4666 
L 3047 4666 
L 3047 1625 
L 3713 1625 
L 3713 1100 
L 3047 1100 
L 3047 0 
L 2419 0 
L 2419 1100 
L 313 1100 
L 313 1709 
L 2253 4666 
z
" transform="scale(0.015625)"/>
       </defs>
       <use xlink:href="#DejaVuSans-34"/>
       <use xlink:href="#DejaVuSans-30" x="63.623047"/>
       <use xlink:href="#DejaVuSans-30" x="127.246094"/>
      </g>
     </g>
    </g>
    <g id="xtick_6">
     <g id="line2d_6">
      <g>
       <use xlink:href="#m57c2ce1452" x="398.487273" y="307.584" style="stroke: #000000; stroke-width: 0.8"/>
      </g>
     </g>
     <g id="text_6">
      <!-- 500 -->
      <g transform="translate(388.943523 322.182437) scale(0.1 -0.1)">
       <defs>
        <path id="DejaVuSans-35" d="M 691 4666 
L 3169 4666 
L 3169 4134 
L 1269 4134 
L 1269 2991 
Q 1406 3038 1543 3061 
Q 1681 3084 1819 3084 
Q 2600 3084 3056 2656 
Q 3513 2228 3513 1497 
Q 3513 744 3044 326 
Q 2575 -91 1722 -91 
Q 1428 -91 1123 -41 
Q 819 9 494 109 
L 494 744 
Q 775 591 1075 516 
Q 1375 441 1709 441 
Q 2250 441 2565 725 
Q 2881 1009 2881 1497 
Q 2881 1984 2565 2268 
Q 2250 2553 1709 2553 
Q 1456 2553 1204 2497 
Q 953 2441 691 2322 
L 691 4666 
z
" transform="scale(0.015625)"/>
       </defs>
       <use xlink:href="#DejaVuSans-35"/>
       <use xlink:href="#DejaVuSans-30" x="63.623047"/>
       <use xlink:href="#DejaVuSans-30" x="127.246094"/>
      </g>
     </g>
    </g>
    <g id="text_7">
     <!-- Sigma(in m) -->
     <g transform="translate(205.569375 335.860562) scale(0.1 -0.1)">
      <defs>
       <path id="DejaVuSans-53" d="M 3425 4513 
L 3425 3897 
Q 3066 4069 2747 4153 
Q 2428 4238 2131 4238 
Q 1616 4238 1336 4038 
Q 1056 3838 1056 3469 
Q 1056 3159 1242 3001 
Q 1428 2844 1947 2747 
L 2328 2669 
Q 3034 2534 3370 2195 
Q 3706 1856 3706 1288 
Q 3706 609 3251 259 
Q 2797 -91 1919 -91 
Q 1588 -91 1214 -16 
Q 841 59 441 206 
L 441 856 
Q 825 641 1194 531 
Q 1563 422 1919 422 
Q 2459 422 2753 634 
Q 3047 847 3047 1241 
Q 3047 1584 2836 1778 
Q 2625 1972 2144 2069 
L 1759 2144 
Q 1053 2284 737 2584 
Q 422 2884 422 3419 
Q 422 4038 858 4394 
Q 1294 4750 2059 4750 
Q 2388 4750 2728 4690 
Q 3069 4631 3425 4513 
z
" transform="scale(0.015625)"/>
       <path id="DejaVuSans-69" d="M 603 3500 
L 1178 3500 
L 1178 0 
L 603 0 
L 603 3500 
z
M 603 4863 
L 1178 4863 
L 1178 4134 
L 603 4134 
L 603 4863 
z
" transform="scale(0.015625)"/>
       <path id="DejaVuSans-67" d="M 2906 1791 
Q 2906 2416 2648 2759 
Q 2391 3103 1925 3103 
Q 1463 3103 1205 2759 
Q 947 2416 947 1791 
Q 947 1169 1205 825 
Q 1463 481 1925 481 
Q 2391 481 2648 825 
Q 2906 1169 2906 1791 
z
M 3481 434 
Q 3481 -459 3084 -895 
Q 2688 -1331 1869 -1331 
Q 1566 -1331 1297 -1286 
Q 1028 -1241 775 -1147 
L 775 -588 
Q 1028 -725 1275 -790 
Q 1522 -856 1778 -856 
Q 2344 -856 2625 -561 
Q 2906 -266 2906 331 
L 2906 616 
Q 2728 306 2450 153 
Q 2172 0 1784 0 
Q 1141 0 747 490 
Q 353 981 353 1791 
Q 353 2603 747 3093 
Q 1141 3584 1784 3584 
Q 2172 3584 2450 3431 
Q 2728 3278 2906 2969 
L 2906 3500 
L 3481 3500 
L 3481 434 
z
" transform="scale(0.015625)"/>
       <path id="DejaVuSans-6d" d="M 3328 2828 
Q 3544 3216 3844 3400 
Q 4144 3584 4550 3584 
Q 5097 3584 5394 3201 
Q 5691 2819 5691 2113 
L 5691 0 
L 5113 0 
L 5113 2094 
Q 5113 2597 4934 2840 
Q 4756 3084 4391 3084 
Q 3944 3084 3684 2787 
Q 3425 2491 3425 1978 
L 3425 0 
L 2847 0 
L 2847 2094 
Q 2847 2600 2669 2842 
Q 2491 3084 2119 3084 
Q 1678 3084 1418 2786 
Q 1159 2488 1159 1978 
L 1159 0 
L 581 0 
L 581 3500 
L 1159 3500 
L 1159 2956 
Q 1356 3278 1631 3431 
Q 1906 3584 2284 3584 
Q 2666 3584 2933 3390 
Q 3200 3197 3328 2828 
z
" transform="scale(0.015625)"/>
       <path id="DejaVuSans-61" d="M 2194 1759 
Q 1497 1759 1228 1600 
Q 959 1441 959 1056 
Q 959 750 1161 570 
Q 1363 391 1709 391 
Q 2188 391 2477 730 
Q 2766 1069 2766 1631 
L 2766 1759 
L 2194 1759 
z
M 3341 1997 
L 3341 0 
L 2766 0 
L 2766 531 
Q 2569 213 2275 61 
Q 1981 -91 1556 -91 
Q 1019 -91 701 211 
Q 384 513 384 1019 
Q 384 1609 779 1909 
Q 1175 2209 1959 2209 
L 2766 2209 
L 2766 2266 
Q 2766 2663 2505 2880 
Q 2244 3097 1772 3097 
Q 1472 3097 1187 3025 
Q 903 2953 641 2809 
L 641 3341 
Q 956 3463 1253 3523 
Q 1550 3584 1831 3584 
Q 2591 3584 2966 3190 
Q 3341 2797 3341 1997 
z
" transform="scale(0.015625)"/>
       <path id="DejaVuSans-28" d="M 1984 4856 
Q 1566 4138 1362 3434 
Q 1159 2731 1159 2009 
Q 1159 1288 1364 580 
Q 1569 -128 1984 -844 
L 1484 -844 
Q 1016 -109 783 600 
Q 550 1309 550 2009 
Q 550 2706 781 3412 
Q 1013 4119 1484 4856 
L 1984 4856 
z
" transform="scale(0.015625)"/>
       <path id="DejaVuSans-6e" d="M 3513 2113 
L 3513 0 
L 2938 0 
L 2938 2094 
Q 2938 2591 2744 2837 
Q 2550 3084 2163 3084 
Q 1697 3084 1428 2787 
Q 1159 2491 1159 1978 
L 1159 0 
L 581 0 
L 581 3500 
L 1159 3500 
L 1159 2956 
Q 1366 3272 1645 3428 
Q 1925 3584 2291 3584 
Q 2894 3584 3203 3211 
Q 3513 2838 3513 2113 
z
" transform="scale(0.015625)"/>
       <path id="DejaVuSans-20" transform="scale(0.015625)"/>
       <path id="DejaVuSans-29" d="M 513 4856 
L 1013 4856 
Q 1481 4119 1714 3412 
Q 1947 2706 1947 2009 
Q 1947 1309 1714 600 
Q 1481 -109 1013 -844 
L 513 -844 
Q 928 -128 1133 580 
Q 1338 1288 1338 2009 
Q 1338 2731 1133 3434 
Q 928 4138 513 4856 
z
" transform="scale(0.015625)"/>
      </defs>
      <use xlink:href="#DejaVuSans-53"/>
      <use xlink:href="#DejaVuSans-69" x="63.476562"/>
      <use xlink:href="#DejaVuSans-67" x="91.259766"/>
      <use xlink:href="#DejaVuSans-6d" x="154.736328"/>
      <use xlink:href="#DejaVuSans-61" x="252.148438"/>
      <use xlink:href="#DejaVuSans-28" x="313.427734"/>
      <use xlink:href="#DejaVuSans-69" x="352.441406"/>
      <use xlink:href="#DejaVuSans-6e" x="380.224609"/>
      <use xlink:href="#DejaVuSans-20" x="443.603516"/>
      <use xlink:href="#DejaVuSans-6d" x="475.390625"/>
      <use xlink:href="#DejaVuSans-29" x="572.802734"/>
     </g>
    </g>
   </g>
   <g id="matplotlib.axis_2">
    <g id="ytick_1">
     <g id="line2d_7">
      <defs>
       <path id="m5a14ac0466" d="M 0 0 
L -3.5 0 
" style="stroke: #000000; stroke-width: 0.8"/>
      </defs>
      <g>
       <use xlink:href="#m5a14ac0466" x="57.6" y="295.488" style="stroke: #000000; stroke-width: 0.8"/>
      </g>
     </g>
     <g id="text_8">
      <!-- 0.00 -->
      <g transform="translate(28.334375 299.287219) scale(0.1 -0.1)">
       <defs>
        <path id="DejaVuSans-2e" d="M 684 794 
L 1344 794 
L 1344 0 
L 684 0 
L 684 794 
z
" transform="scale(0.015625)"/>
       </defs>
       <use xlink:href="#DejaVuSans-30"/>
       <use xlink:href="#DejaVuSans-2e" x="63.623047"/>
       <use xlink:href="#DejaVuSans-30" x="95.410156"/>
       <use xlink:href="#DejaVuSans-30" x="159.033203"/>
      </g>
     </g>
    </g>
    <g id="ytick_2">
     <g id="line2d_8">
      <g>
       <use xlink:href="#m5a14ac0466" x="57.6" y="242.805073" style="stroke: #000000; stroke-width: 0.8"/>
      </g>
     </g>
     <g id="text_9">
      <!-- 0.05 -->
      <g transform="translate(28.334375 246.604292) scale(0.1 -0.1)">
       <use xlink:href="#DejaVuSans-30"/>
       <use xlink:href="#DejaVuSans-2e" x="63.623047"/>
       <use xlink:href="#DejaVuSans-30" x="95.410156"/>
       <use xlink:href="#DejaVuSans-35" x="159.033203"/>
      </g>
     </g>
    </g>
    <g id="ytick_3">
     <g id="line2d_9">
      <g>
       <use xlink:href="#m5a14ac0466" x="57.6" y="190.122146" style="stroke: #000000; stroke-width: 0.8"/>
      </g>
     </g>
     <g id="text_10">
      <!-- 0.10 -->
      <g transform="translate(28.334375 193.921365) scale(0.1 -0.1)">
       <use xlink:href="#DejaVuSans-30"/>
       <use xlink:href="#DejaVuSans-2e" x="63.623047"/>
       <use xlink:href="#DejaVuSans-31" x="95.410156"/>
       <use xlink:href="#DejaVuSans-30" x="159.033203"/>
      </g>
     </g>
    </g>
    <g id="ytick_4">
     <g id="line2d_10">
      <g>
       <use xlink:href="#m5a14ac0466" x="57.6" y="137.43922" style="stroke: #000000; stroke-width: 0.8"/>
      </g>
     </g>
     <g id="text_11">
      <!-- 0.15 -->
      <g transform="translate(28.334375 141.238438) scale(0.1 -0.1)">
       <use xlink:href="#DejaVuSans-30"/>
       <use xlink:href="#DejaVuSans-2e" x="63.623047"/>
       <use xlink:href="#DejaVuSans-31" x="95.410156"/>
       <use xlink:href="#DejaVuSans-35" x="159.033203"/>
      </g>
     </g>
    </g>
    <g id="ytick_5">
     <g id="line2d_11">
      <g>
       <use xlink:href="#m5a14ac0466" x="57.6" y="84.756293" style="stroke: #000000; stroke-width: 0.8"/>
      </g>
     </g>
     <g id="text_12">
      <!-- 0.20 -->
      <g transform="translate(28.334375 88.555511) scale(0.1 -0.1)">
       <use xlink:href="#DejaVuSans-30"/>
       <use xlink:href="#DejaVuSans-2e" x="63.623047"/>
       <use xlink:href="#DejaVuSans-32" x="95.410156"/>
       <use xlink:href="#DejaVuSans-30" x="159.033203"/>
      </g>
     </g>
    </g>
    <g id="text_13">
     <!-- Collision Probability -->
     <g transform="translate(22.254687 223.485813) rotate(-90) scale(0.1 -0.1)">
      <defs>
       <path id="DejaVuSans-43" d="M 4122 4306 
L 4122 3641 
Q 3803 3938 3442 4084 
Q 3081 4231 2675 4231 
Q 1875 4231 1450 3742 
Q 1025 3253 1025 2328 
Q 1025 1406 1450 917 
Q 1875 428 2675 428 
Q 3081 428 3442 575 
Q 3803 722 4122 1019 
L 4122 359 
Q 3791 134 3420 21 
Q 3050 -91 2638 -91 
Q 1578 -91 968 557 
Q 359 1206 359 2328 
Q 359 3453 968 4101 
Q 1578 4750 2638 4750 
Q 3056 4750 3426 4639 
Q 3797 4528 4122 4306 
z
" transform="scale(0.015625)"/>
       <path id="DejaVuSans-6f" d="M 1959 3097 
Q 1497 3097 1228 2736 
Q 959 2375 959 1747 
Q 959 1119 1226 758 
Q 1494 397 1959 397 
Q 2419 397 2687 759 
Q 2956 1122 2956 1747 
Q 2956 2369 2687 2733 
Q 2419 3097 1959 3097 
z
M 1959 3584 
Q 2709 3584 3137 3096 
Q 3566 2609 3566 1747 
Q 3566 888 3137 398 
Q 2709 -91 1959 -91 
Q 1206 -91 779 398 
Q 353 888 353 1747 
Q 353 2609 779 3096 
Q 1206 3584 1959 3584 
z
" transform="scale(0.015625)"/>
       <path id="DejaVuSans-6c" d="M 603 4863 
L 1178 4863 
L 1178 0 
L 603 0 
L 603 4863 
z
" transform="scale(0.015625)"/>
       <path id="DejaVuSans-73" d="M 2834 3397 
L 2834 2853 
Q 2591 2978 2328 3040 
Q 2066 3103 1784 3103 
Q 1356 3103 1142 2972 
Q 928 2841 928 2578 
Q 928 2378 1081 2264 
Q 1234 2150 1697 2047 
L 1894 2003 
Q 2506 1872 2764 1633 
Q 3022 1394 3022 966 
Q 3022 478 2636 193 
Q 2250 -91 1575 -91 
Q 1294 -91 989 -36 
Q 684 19 347 128 
L 347 722 
Q 666 556 975 473 
Q 1284 391 1588 391 
Q 1994 391 2212 530 
Q 2431 669 2431 922 
Q 2431 1156 2273 1281 
Q 2116 1406 1581 1522 
L 1381 1569 
Q 847 1681 609 1914 
Q 372 2147 372 2553 
Q 372 3047 722 3315 
Q 1072 3584 1716 3584 
Q 2034 3584 2315 3537 
Q 2597 3491 2834 3397 
z
" transform="scale(0.015625)"/>
       <path id="DejaVuSans-50" d="M 1259 4147 
L 1259 2394 
L 2053 2394 
Q 2494 2394 2734 2622 
Q 2975 2850 2975 3272 
Q 2975 3691 2734 3919 
Q 2494 4147 2053 4147 
L 1259 4147 
z
M 628 4666 
L 2053 4666 
Q 2838 4666 3239 4311 
Q 3641 3956 3641 3272 
Q 3641 2581 3239 2228 
Q 2838 1875 2053 1875 
L 1259 1875 
L 1259 0 
L 628 0 
L 628 4666 
z
" transform="scale(0.015625)"/>
       <path id="DejaVuSans-72" d="M 2631 2963 
Q 2534 3019 2420 3045 
Q 2306 3072 2169 3072 
Q 1681 3072 1420 2755 
Q 1159 2438 1159 1844 
L 1159 0 
L 581 0 
L 581 3500 
L 1159 3500 
L 1159 2956 
Q 1341 3275 1631 3429 
Q 1922 3584 2338 3584 
Q 2397 3584 2469 3576 
Q 2541 3569 2628 3553 
L 2631 2963 
z
" transform="scale(0.015625)"/>
       <path id="DejaVuSans-62" d="M 3116 1747 
Q 3116 2381 2855 2742 
Q 2594 3103 2138 3103 
Q 1681 3103 1420 2742 
Q 1159 2381 1159 1747 
Q 1159 1113 1420 752 
Q 1681 391 2138 391 
Q 2594 391 2855 752 
Q 3116 1113 3116 1747 
z
M 1159 2969 
Q 1341 3281 1617 3432 
Q 1894 3584 2278 3584 
Q 2916 3584 3314 3078 
Q 3713 2572 3713 1747 
Q 3713 922 3314 415 
Q 2916 -91 2278 -91 
Q 1894 -91 1617 61 
Q 1341 213 1159 525 
L 1159 0 
L 581 0 
L 581 4863 
L 1159 4863 
L 1159 2969 
z
" transform="scale(0.015625)"/>
       <path id="DejaVuSans-74" d="M 1172 4494 
L 1172 3500 
L 2356 3500 
L 2356 3053 
L 1172 3053 
L 1172 1153 
Q 1172 725 1289 603 
Q 1406 481 1766 481 
L 2356 481 
L 2356 0 
L 1766 0 
Q 1100 0 847 248 
Q 594 497 594 1153 
L 594 3053 
L 172 3053 
L 172 3500 
L 594 3500 
L 594 4494 
L 1172 4494 
z
" transform="scale(0.015625)"/>
       <path id="DejaVuSans-79" d="M 2059 -325 
Q 1816 -950 1584 -1140 
Q 1353 -1331 966 -1331 
L 506 -1331 
L 506 -850 
L 844 -850 
Q 1081 -850 1212 -737 
Q 1344 -625 1503 -206 
L 1606 56 
L 191 3500 
L 800 3500 
L 1894 763 
L 2988 3500 
L 3597 3500 
L 2059 -325 
z
" transform="scale(0.015625)"/>
      </defs>
      <use xlink:href="#DejaVuSans-43"/>
      <use xlink:href="#DejaVuSans-6f" x="69.824219"/>
      <use xlink:href="#DejaVuSans-6c" x="131.005859"/>
      <use xlink:href="#DejaVuSans-6c" x="158.789062"/>
      <use xlink:href="#DejaVuSans-69" x="186.572266"/>
      <use xlink:href="#DejaVuSans-73" x="214.355469"/>
      <use xlink:href="#DejaVuSans-69" x="266.455078"/>
      <use xlink:href="#DejaVuSans-6f" x="294.238281"/>
      <use xlink:href="#DejaVuSans-6e" x="355.419922"/>
      <use xlink:href="#DejaVuSans-20" x="418.798828"/>
      <use xlink:href="#DejaVuSans-50" x="450.585938"/>
      <use xlink:href="#DejaVuSans-72" x="509.138672"/>
      <use xlink:href="#DejaVuSans-6f" x="548.001953"/>
      <use xlink:href="#DejaVuSans-62" x="609.183594"/>
      <use xlink:href="#DejaVuSans-61" x="672.660156"/>
      <use xlink:href="#DejaVuSans-62" x="733.939453"/>
      <use xlink:href="#DejaVuSans-69" x="797.416016"/>
      <use xlink:href="#DejaVuSans-6c" x="825.199219"/>
      <use xlink:href="#DejaVuSans-69" x="852.982422"/>
      <use xlink:href="#DejaVuSans-74" x="880.765625"/>
      <use xlink:href="#DejaVuSans-79" x="919.974609"/>
     </g>
    </g>
   </g>
   <g id="line2d_12">
    <path d="M 73.832727 53.568 
L 74.509091 81.753366 
L 75.861818 123.92078 
L 76.538182 142.92878 
L 77.214545 155.562146 
L 77.890909 170.618927 
L 79.243636 192.440195 
L 81.272727 217.864976 
L 83.978182 240.139317 
L 86.007273 251.550439 
L 86.683636 253.994927 
L 87.36 257.93561 
L 88.036364 260.00078 
L 88.712727 262.866732 
L 89.389091 263.477854 
L 90.065455 266.17522 
L 90.741818 266.839024 
L 91.418182 269.620683 
L 92.770909 272.950244 
L 93.447273 274.551805 
L 94.8 276.153366 
L 95.476364 277.902439 
L 96.152727 278.060488 
L 96.829091 278.924488 
L 97.505455 280.610341 
L 98.181818 280.062439 
L 98.858182 282.043317 
L 100.210909 282.643902 
L 100.887273 283.697561 
L 101.563636 283.539512 
L 103.592727 285.446634 
L 104.269091 285.667902 
L 104.945455 286.099902 
L 105.621818 286.890146 
L 106.298182 287.385366 
L 106.974545 287.090341 
L 107.650909 287.891122 
L 108.327273 288.270439 
L 109.003636 288.51278 
L 109.68 288.955317 
L 110.356364 289.113366 
L 111.709091 289.671805 
L 112.385455 289.819317 
L 113.738182 290.70439 
L 114.414545 290.282927 
L 115.090909 290.778146 
L 115.767273 290.599024 
L 117.12 291.347122 
L 117.796364 290.988878 
L 119.149091 291.452488 
L 119.825455 291.66322 
L 120.501818 292.105756 
L 121.178182 291.758049 
L 121.854545 292.126829 
L 122.530909 292.221659 
L 123.207273 292.137366 
L 123.883636 292.316488 
L 124.56 292.737951 
L 125.236364 292.485073 
L 125.912727 292.548293 
L 126.589091 292.86439 
L 127.941818 292.769561 
L 128.618182 292.990829 
L 129.294545 292.811707 
L 129.970909 293.096195 
L 131.323636 293.317463 
L 133.352727 293.317463 
L 134.705455 293.285854 
L 135.381818 293.886439 
L 136.058182 293.496585 
L 136.734545 293.559805 
L 137.410909 293.833756 
L 138.087273 293.802146 
L 138.763636 293.928585 
L 139.44 293.865366 
L 140.116364 293.918049 
L 140.792727 293.802146 
L 142.145455 294.097171 
L 143.498182 293.865366 
L 144.174545 294.25522 
L 144.850909 294.318439 
L 145.527273 294.181463 
L 146.203636 294.213073 
L 146.88 293.939122 
L 147.556364 294.16039 
L 148.909091 294.234146 
L 149.585455 294.297366 
L 150.261818 294.12878 
L 150.938182 294.265756 
L 151.614545 294.56078 
L 152.290909 294.571317 
L 152.967273 294.465951 
L 153.643636 294.508098 
L 154.996364 294.444878 
L 156.349091 294.392195 
L 158.378182 294.792585 
L 159.054545 294.729366 
L 159.730909 294.876878 
L 161.083636 294.571317 
L 161.76 294.666146 
L 163.112727 294.602927 
L 163.789091 294.803122 
L 164.465455 294.803122 
L 165.141818 294.950634 
L 165.818182 294.792585 
L 166.494545 294.845268 
L 167.847273 294.760976 
L 169.876364 294.792585 
L 170.552727 294.771512 
L 171.229091 294.971707 
L 172.581818 294.845268 
L 173.258182 295.003317 
L 174.610909 294.876878 
L 175.287273 294.99278 
L 175.963636 294.866341 
L 177.316364 295.034927 
L 178.669091 295.013854 
L 179.345455 295.013854 
L 180.021818 294.855805 
L 183.403636 295.129756 
L 184.756364 295.013854 
L 198.283636 295.224585 
L 198.96 295.108683 
L 200.312727 295.182439 
L 203.018182 295.214049 
L 203.694545 295.298341 
L 204.370909 295.161366 
L 205.047273 295.308878 
L 206.4 295.235122 
L 209.781818 295.287805 
L 211.134545 295.224585 
L 215.192727 295.351024 
L 216.545455 295.192976 
L 218.574545 295.329951 
L 219.927273 295.214049 
L 220.603636 295.298341 
L 221.28 295.266732 
L 222.632727 295.372098 
L 223.985455 295.235122 
L 224.661818 295.308878 
L 225.338182 295.235122 
L 226.690909 295.42478 
L 227.367273 295.287805 
L 229.396364 295.298341 
L 257.127273 295.372098 
L 258.48 295.361561 
L 261.861818 295.42478 
L 262.538182 295.361561 
L 263.890909 295.414244 
L 265.243636 295.382634 
L 266.596364 295.466927 
L 269.301818 295.382634 
L 272.683636 295.45639 
L 274.036364 295.340488 
L 275.389091 295.382634 
L 276.741818 295.435317 
L 277.418182 295.382634 
L 278.094545 295.477463 
L 278.770909 295.298341 
L 279.447273 295.414244 
L 282.829091 295.372098 
L 283.505455 295.435317 
L 284.181818 295.340488 
L 286.887273 295.445854 
L 288.24 295.42478 
L 291.621818 295.445854 
L 296.356364 295.382634 
L 297.709091 295.45639 
L 298.385455 295.382634 
L 299.061818 295.45639 
L 300.414545 295.403707 
L 302.443636 295.466927 
L 303.796364 295.382634 
L 305.149091 295.466927 
L 306.501818 295.445854 
L 312.589091 295.435317 
L 314.618182 295.435317 
L 321.381818 295.435317 
L 325.44 295.466927 
L 328.821818 295.414244 
L 333.556364 295.45639 
L 338.967273 295.466927 
L 340.996364 295.45639 
L 343.701818 295.445854 
L 345.054545 295.414244 
L 355.876364 295.488 
L 364.669091 295.45639 
L 372.109091 295.466927 
L 398.487273 295.477463 
L 398.487273 295.477463 
" clip-path="url(#p77a4d1d621)" style="fill: none; stroke: #1f77b4; stroke-width: 1.5; stroke-linecap: square"/>
   </g>
   <g id="line2d_13">
    <path d="M 73.832727 177.847774 
L 75.185455 197.661208 
L 76.538182 212.897712 
L 77.890909 224.856014 
L 79.243636 234.407785 
L 80.596364 242.154691 
L 81.949091 248.522367 
L 83.301818 253.818508 
L 84.654545 258.269871 
L 86.007273 262.04645 
L 87.36 265.277661 
L 88.712727 268.063402 
L 90.065455 270.481756 
L 92.094545 273.552 
L 94.123636 276.090628 
L 96.152727 278.213456 
L 98.181818 280.006441 
L 100.210909 281.534453 
L 102.916364 283.243847 
L 105.621818 284.657635 
L 108.327273 285.840188 
L 111.709091 287.064812 
L 115.767273 288.249827 
L 119.825455 289.201425 
L 124.56 290.092308 
L 130.647273 290.984578 
L 137.410909 291.73916 
L 145.527273 292.418603 
L 155.672727 293.03648 
L 168.523636 293.583837 
L 185.432727 294.0635 
L 207.752727 294.462008 
L 239.541818 294.793603 
L 288.24 295.058588 
L 370.08 295.255497 
L 398.487273 295.292915 
L 398.487273 295.292915 
" clip-path="url(#p77a4d1d621)" style="fill: none; stroke: #ff7f0e; stroke-width: 1.5; stroke-linecap: square"/>
   </g>
   <g id="line2d_14">
    <path d="M 73.832727 218.744275 
L 75.185455 231.650667 
L 76.538182 241.58108 
L 77.890909 249.378162 
L 79.243636 255.608152 
L 80.596364 260.662254 
L 81.949091 264.81741 
L 83.301818 268.273941 
L 84.654545 271.17954 
L 86.007273 273.644974 
L 86.683636 274.739806 
M 88.036364 276.696928 
L 90.065455 279.152698 
L 92.094545 281.157707 
L 94.123636 282.815679 
L 96.152727 284.202185 
L 98.858182 285.723476 
L 101.563636 286.957053 
L 104.269091 287.97107 
L 107.650909 289.003372 
L 110.356364 289.683584 
M 111.709091 289.984271 
L 116.443636 290.871513 
L 121.854545 291.646107 
L 127.941818 292.30553 
M 129.294545 292.42893 
L 137.410909 293.038339 
L 147.556364 293.574419 
L 161.083636 294.053328 
L 177.992727 294.435782 
M 179.345455 294.459549 
L 205.047273 294.792255 
L 234.130909 295.005547 
M 235.483636 295.012967 
L 295.003636 295.223328 
L 398.487273 295.360516 
L 398.487273 295.360516 
" clip-path="url(#p77a4d1d621)" style="fill: none; stroke: #2ca02c; stroke-width: 1.5; stroke-linecap: square"/>
   </g>
   <g id="patch_3">
    <path d="M 57.6 307.584 
L 57.6 41.472 
" style="fill: none; stroke: #000000; stroke-width: 0.8; stroke-linejoin: miter; stroke-linecap: square"/>
   </g>
   <g id="patch_4">
    <path d="M 414.72 307.584 
L 414.72 41.472 
" style="fill: none; stroke: #000000; stroke-width: 0.8; stroke-linejoin: miter; stroke-linecap: square"/>
   </g>
   <g id="patch_5">
    <path d="M 57.6 307.584 
L 414.72 307.584 
" style="fill: none; stroke: #000000; stroke-width: 0.8; stroke-linejoin: miter; stroke-linecap: square"/>
   </g>
   <g id="patch_6">
    <path d="M 57.6 41.472 
L 414.72 41.472 
" style="fill: none; stroke: #000000; stroke-width: 0.8; stroke-linejoin: miter; stroke-linecap: square"/>
   </g>
   <g id="text_14">
    <!-- Collision Probability vs Sigma -->
    <g transform="translate(148.11375 35.472) scale(0.12 -0.12)">
     <defs>
      <path id="DejaVuSans-76" d="M 191 3500 
L 800 3500 
L 1894 563 
L 2988 3500 
L 3597 3500 
L 2284 0 
L 1503 0 
L 191 3500 
z
" transform="scale(0.015625)"/>
     </defs>
     <use xlink:href="#DejaVuSans-43"/>
     <use xlink:href="#DejaVuSans-6f" x="69.824219"/>
     <use xlink:href="#DejaVuSans-6c" x="131.005859"/>
     <use xlink:href="#DejaVuSans-6c" x="158.789062"/>
     <use xlink:href="#DejaVuSans-69" x="186.572266"/>
     <use xlink:href="#DejaVuSans-73" x="214.355469"/>
     <use xlink:href="#DejaVuSans-69" x="266.455078"/>
     <use xlink:href="#DejaVuSans-6f" x="294.238281"/>
     <use xlink:href="#DejaVuSans-6e" x="355.419922"/>
     <use xlink:href="#DejaVuSans-20" x="418.798828"/>
     <use xlink:href="#DejaVuSans-50" x="450.585938"/>
     <use xlink:href="#DejaVuSans-72" x="509.138672"/>
     <use xlink:href="#DejaVuSans-6f" x="548.001953"/>
     <use xlink:href="#DejaVuSans-62" x="609.183594"/>
     <use xlink:href="#DejaVuSans-61" x="672.660156"/>
     <use xlink:href="#DejaVuSans-62" x="733.939453"/>
     <use xlink:href="#DejaVuSans-69" x="797.416016"/>
     <use xlink:href="#DejaVuSans-6c" x="825.199219"/>
     <use xlink:href="#DejaVuSans-69" x="852.982422"/>
     <use xlink:href="#DejaVuSans-74" x="880.765625"/>
     <use xlink:href="#DejaVuSans-79" x="919.974609"/>
     <use xlink:href="#DejaVuSans-20" x="979.154297"/>
     <use xlink:href="#DejaVuSans-76" x="1010.941406"/>
     <use xlink:href="#DejaVuSans-73" x="1070.121094"/>
     <use xlink:href="#DejaVuSans-20" x="1122.220703"/>
     <use xlink:href="#DejaVuSans-53" x="1154.007812"/>
     <use xlink:href="#DejaVuSans-69" x="1217.484375"/>
     <use xlink:href="#DejaVuSans-67" x="1245.267578"/>
     <use xlink:href="#DejaVuSans-6d" x="1308.744141"/>
     <use xlink:href="#DejaVuSans-61" x="1406.15625"/>
    </g>
   </g>
   <g id="legend_1">
    <g id="patch_7">
     <path d="M 315.265312 93.506375 
L 407.72 93.506375 
Q 409.72 93.506375 409.72 91.506375 
L 409.72 48.472 
Q 409.72 46.472 407.72 46.472 
L 315.265312 46.472 
Q 313.265312 46.472 313.265312 48.472 
L 313.265312 91.506375 
Q 313.265312 93.506375 315.265312 93.506375 
z
" style="fill: #ffffff; opacity: 0.8; stroke: #cccccc; stroke-linejoin: miter"/>
    </g>
    <g id="line2d_15">
     <path d="M 317.265312 54.570438 
L 327.265312 54.570438 
L 337.265312 54.570438 
" style="fill: none; stroke: #1f77b4; stroke-width: 1.5; stroke-linecap: square"/>
    </g>
    <g id="text_15">
     <!-- Monte Carlo -->
     <g transform="translate(345.265312 58.070438) scale(0.1 -0.1)">
      <defs>
       <path id="DejaVuSans-4d" d="M 628 4666 
L 1569 4666 
L 2759 1491 
L 3956 4666 
L 4897 4666 
L 4897 0 
L 4281 0 
L 4281 4097 
L 3078 897 
L 2444 897 
L 1241 4097 
L 1241 0 
L 628 0 
L 628 4666 
z
" transform="scale(0.015625)"/>
       <path id="DejaVuSans-65" d="M 3597 1894 
L 3597 1613 
L 953 1613 
Q 991 1019 1311 708 
Q 1631 397 2203 397 
Q 2534 397 2845 478 
Q 3156 559 3463 722 
L 3463 178 
Q 3153 47 2828 -22 
Q 2503 -91 2169 -91 
Q 1331 -91 842 396 
Q 353 884 353 1716 
Q 353 2575 817 3079 
Q 1281 3584 2069 3584 
Q 2775 3584 3186 3129 
Q 3597 2675 3597 1894 
z
M 3022 2063 
Q 3016 2534 2758 2815 
Q 2500 3097 2075 3097 
Q 1594 3097 1305 2825 
Q 1016 2553 972 2059 
L 3022 2063 
z
" transform="scale(0.015625)"/>
      </defs>
      <use xlink:href="#DejaVuSans-4d"/>
      <use xlink:href="#DejaVuSans-6f" x="86.279297"/>
      <use xlink:href="#DejaVuSans-6e" x="147.460938"/>
      <use xlink:href="#DejaVuSans-74" x="210.839844"/>
      <use xlink:href="#DejaVuSans-65" x="250.048828"/>
      <use xlink:href="#DejaVuSans-20" x="311.572266"/>
      <use xlink:href="#DejaVuSans-43" x="343.359375"/>
      <use xlink:href="#DejaVuSans-61" x="413.183594"/>
      <use xlink:href="#DejaVuSans-72" x="474.462891"/>
      <use xlink:href="#DejaVuSans-6c" x="515.576172"/>
      <use xlink:href="#DejaVuSans-6f" x="543.359375"/>
     </g>
    </g>
    <g id="line2d_16">
     <path d="M 317.265312 69.248563 
L 327.265312 69.248563 
L 337.265312 69.248563 
" style="fill: none; stroke: #ff7f0e; stroke-width: 1.5; stroke-linecap: square"/>
    </g>
    <g id="text_16">
     <!-- Alfano -->
     <g transform="translate(345.265312 72.748563) scale(0.1 -0.1)">
      <defs>
       <path id="DejaVuSans-41" d="M 2188 4044 
L 1331 1722 
L 3047 1722 
L 2188 4044 
z
M 1831 4666 
L 2547 4666 
L 4325 0 
L 3669 0 
L 3244 1197 
L 1141 1197 
L 716 0 
L 50 0 
L 1831 4666 
z
" transform="scale(0.015625)"/>
       <path id="DejaVuSans-66" d="M 2375 4863 
L 2375 4384 
L 1825 4384 
Q 1516 4384 1395 4259 
Q 1275 4134 1275 3809 
L 1275 3500 
L 2222 3500 
L 2222 3053 
L 1275 3053 
L 1275 0 
L 697 0 
L 697 3053 
L 147 3053 
L 147 3500 
L 697 3500 
L 697 3744 
Q 697 4328 969 4595 
Q 1241 4863 1831 4863 
L 2375 4863 
z
" transform="scale(0.015625)"/>
      </defs>
      <use xlink:href="#DejaVuSans-41"/>
      <use xlink:href="#DejaVuSans-6c" x="68.408203"/>
      <use xlink:href="#DejaVuSans-66" x="96.191406"/>
      <use xlink:href="#DejaVuSans-61" x="131.396484"/>
      <use xlink:href="#DejaVuSans-6e" x="192.675781"/>
      <use xlink:href="#DejaVuSans-6f" x="256.054688"/>
     </g>
    </g>
    <g id="line2d_17">
     <path d="M 317.265312 83.926688 
L 327.265312 83.926688 
L 337.265312 83.926688 
" style="fill: none; stroke: #2ca02c; stroke-width: 1.5; stroke-linecap: square"/>
    </g>
    <g id="text_17">
     <!-- Patera -->
     <g transform="translate(345.265312 87.426688) scale(0.1 -0.1)">
      <use xlink:href="#DejaVuSans-50"/>
      <use xlink:href="#DejaVuSans-61" x="55.802734"/>
      <use xlink:href="#DejaVuSans-74" x="117.082031"/>
      <use xlink:href="#DejaVuSans-65" x="156.291016"/>
      <use xlink:href="#DejaVuSans-72" x="217.814453"/>
      <use xlink:href="#DejaVuSans-61" x="258.927734"/>
     </g>
    </g>
   </g>
  </g>
 </g>
 <defs>
  <clipPath id="p77a4d1d621">
   <rect x="57.6" y="41.472" width="357.12" height="266.112"/>
  </clipPath>
 </defs>
</svg>
